<svg width="32" height="32" viewBox="0 0 32 32" fill="none" xmlns="http://www.w3.org/2000/svg">
<path d="M15.3205 17.668H15.1969L7.16602 28.417L6.05405 28.7876L3.21235 25.8224L3.45946 24.834L14.2085 16.8031V16.6795L0.988416 18.5328L0 18.0386V13.9614L0.988416 13.4671L14.2085 15.3205V15.1969L3.45946 7.16601L3.21235 6.1776L6.05405 3.21235L7.16602 3.583L15.1969 14.332H15.3205L13.4671 0.988412L13.9614 0H18.0386L18.5329 0.988412L16.6795 14.332H16.8031L24.834 3.583L25.946 3.21235L28.7876 6.1776L28.5405 7.16601L17.7915 15.1969V15.3205L31.0116 13.4671L32 13.9614V18.0386L31.0116 18.5328L17.7915 16.6795V16.8031L28.5405 24.834L28.7876 25.8224L25.946 28.7876L24.834 28.417L16.8031 17.668H16.6795L18.5329 31.0116L18.0386 32H13.9614L13.4671 31.0116L15.3205 17.668Z" fill="black"/>
</svg>
