<svg width="257" height="257" viewBox="0 0 257 257" fill="none" xmlns="http://www.w3.org/2000/svg">
<path d="M123.234 142.254H122.245L57.9982 228.246L49.1024 231.211L26.3688 207.489L28.3457 199.582L114.338 135.335V134.346L8.57733 149.172L0.669998 145.219V112.601L8.57733 108.647L114.338 123.474V122.485L28.3457 58.2381L26.3688 50.3308L49.1024 26.6088L57.9982 29.574L122.245 115.566H123.234L108.407 8.81727L112.361 0.909973H144.979L148.933 8.81727L134.106 115.566H135.095L199.342 29.574L208.238 26.6088L230.971 50.3308L228.994 58.2381L143.002 122.485V123.474L248.763 108.647L256.67 112.601V145.219L248.763 149.172L143.002 134.346V135.335L228.994 199.582L230.971 207.489L208.238 231.211L199.342 228.246L135.095 142.254H134.106L148.933 249.003L144.979 256.91H112.361L108.407 249.003L123.234 142.254Z" fill="black"/>
</svg>
